<svg width="405" height="465" viewBox="0 0 405 465" fill="none" xmlns="http://www.w3.org/2000/svg">
<path d="M403.292 295.673C403.292 346.34 403.292 396.983 403.292 447.603C403.292 458.073 397.092 464.373 386.482 464.433C368.322 464.533 350.161 464.433 332.001 464.383C324.861 464.383 324.122 463.563 324.112 456.183C324.032 403.203 323.961 350.223 323.901 297.243C323.851 261.083 323.901 224.933 323.651 188.783C323.651 183.853 325.451 181.253 329.651 179.053C352.651 166.933 375.081 153.833 395.871 138.053C397.411 136.893 400.522 135.603 401.452 136.303C402.922 137.413 403.812 140.153 403.822 142.203C403.895 188.516 403.878 234.85 403.772 281.203C403.772 286.033 403.772 290.853 403.772 295.683L403.292 295.673Z" fill="url(#paint0_linear_207_222)"/>
<path d="M0.860046 278.045C127.86 241.785 236.18 177.525 317.08 69.6447C313.92 68.2247 312.08 67.2747 310.14 66.5247C302.37 63.5247 294.55 60.6547 286.83 57.5247C285.29 56.8947 282.913 56.3899 282.71 54.3747C282.492 52.2094 285.15 51.2247 286.71 50.4947C317.757 36.2347 348.81 22.0281 379.87 7.87472C384.41 5.79472 388.87 3.49471 393.37 1.38471C399 -1.23529 400.62 -0.32528 400.92 5.73472C401.52 17.7347 402.08 29.7347 402.53 41.7347C403.33 63.0347 404.057 84.3414 404.71 105.655C404.76 107.435 405.15 109.977 403.25 111.055C401.312 112.155 399.35 110.365 397.79 109.395C390.87 105.055 384.02 100.615 377.32 95.9647C373.92 93.6047 371.83 93.6947 369.24 97.3447C344.05 132.865 313.43 163.015 278.35 188.735C235.21 220.355 187.91 243.615 136.85 259.405C95.2555 272.244 52.0633 279.175 8.54005 279.995C6.08005 280.055 1.28003 280.605 1.13004 279.525C0.980057 278.445 0.860046 278.045 0.860046 278.045Z" fill="url(#paint1_linear_207_222)"/>
<path d="M295.336 343.76C295.336 380.914 295.336 418.067 295.336 455.22C295.336 463.22 294.796 463.78 286.906 463.79C266.413 463.79 245.92 463.81 225.426 463.85C216.736 463.85 216.316 463.42 216.296 454.85C216.216 404.85 216.14 354.85 216.066 304.85C216.066 291.53 215.946 278.2 215.606 264.85C215.486 259.85 217.356 257.43 222.116 255.85C244.926 248.15 266.396 237.55 287.046 225.23C293.456 221.4 295.586 222.56 295.606 230.23C295.666 268.05 295.666 305.87 295.606 343.69L295.336 343.76Z" fill="url(#paint2_linear_207_222)"/>
<path d="M187.381 371.362C187.381 399.522 187.381 427.679 187.381 455.832C187.381 463.562 186.771 464.122 179.161 464.132H115.691C109.051 464.132 108.151 463.282 108.131 456.662C107.971 407.669 107.801 358.685 107.621 309.712C107.621 305.462 109.351 303.622 113.301 302.332C134.954 295.232 156.544 287.955 178.071 280.502C185.921 277.762 187.611 278.632 187.601 286.912C187.601 315.072 187.601 343.229 187.601 371.382L187.381 371.362Z" fill="url(#paint3_linear_207_222)"/>
<path d="M79.51 401.786C79.51 419.786 79.51 437.786 79.51 455.786C79.51 463.516 78.81 464.126 71.29 464.126C53.29 464.126 35.29 464.126 17.29 464.126C6.43 464.126 0.290001 457.986 0.220001 447.046C0.110001 419.046 0.14 391.046 0 363.116C0 359.336 1.21 357.666 5.13 356.716C27.4 351.266 49.6 345.496 71.79 339.716C77.64 338.186 79.58 339.336 79.59 345.386C79.66 364.206 79.59 383.026 79.59 401.846L79.51 401.786Z" fill="url(#paint4_linear_207_222)"/>
<defs>
<linearGradient id="paint0_linear_207_222" x1="405.948" y1="135.118" x2="239.364" y2="186.958" gradientUnits="userSpaceOnUse">
<stop stop-color="#8000DB"/>
<stop offset="1" stop-color="#5238F5"/>
</linearGradient>
<linearGradient id="paint1_linear_207_222" x1="415.258" y1="-0.841666" x2="204.842" y2="385.576" gradientUnits="userSpaceOnUse">
<stop stop-color="#8000DB"/>
<stop offset="1" stop-color="#5238F5"/>
</linearGradient>
<linearGradient id="paint2_linear_207_222" x1="297.729" y1="222.382" x2="143.127" y2="287.869" gradientUnits="userSpaceOnUse">
<stop stop-color="#8000DB"/>
<stop offset="1" stop-color="#5238F5"/>
</linearGradient>
<linearGradient id="paint3_linear_207_222" x1="189.677" y1="278.549" x2="49.8841" y2="355.527" gradientUnits="userSpaceOnUse">
<stop stop-color="#8000DB"/>
<stop offset="1" stop-color="#5238F5"/>
</linearGradient>
<linearGradient id="paint4_linear_207_222" x1="81.6872" y1="338.729" x2="-27.6857" y2="427.464" gradientUnits="userSpaceOnUse">
<stop stop-color="#8000DB"/>
<stop offset="1" stop-color="#5238F5"/>
</linearGradient>
</defs>
</svg>
